# xmcd
#
# Track frame offsets: 
#        150
#        18325
#        31130
#        42885
#        58195
#        77412
#        96314
#        112696
#        133398
#        167585
#        187680
#
# Disc length: 2724 seconds
#
# Revision: 0
# Processed by: cddbd v1.5.2PL0 Copyright (c) Steve Scherf et al.
# Submitted via: ExactAudioCopy v1.0b1
#
DISCID=7e0aa20b
DTITLE=Canned Heat - Christmas Album
DYEAR=2007
DGENRE=Blues Rock
TTITLE0=Deck The Halls
TTITLE1=The Christmas Song (With The Chipmunks)
TTITLE2=Christmas Blues
TTITLE3=Santa Claus Is Coming To Town
TTITLE4=I Won't Be Home For Christmas
TTITLE5=Christmas Boogie
TTITLE6=Santa Claus Is Back In Town
TTITLE7=Jingle Bells
TTITLE8=Christmas Blues
TTITLE9=Boogie Boy (Little Drummer Boy)
TTITLE10=Christmas Blues (feat. Eric Clapton and John Popper)
EXTD=
EXTT0=
EXTT1=
EXTT2=
EXTT3=
EXTT4=
EXTT5=
EXTT6=
EXTT7=
EXTT8=
EXTT9=
EXTT10=
PLAYORDER=
